<svg xmlns="http://www.w3.org/2000/svg" xmlns:xlink="http://www.w3.org/1999/xlink" aria-hidden="true" role="img" class="iconify iconify--logos" width="31.88" height="32" preserveAspectRatio="xMidYMid meet" viewBox="0 0 256 257"><defs><linearGradient id="IconifyId1813088fe1fbc01fb466" x1="-.828%" x2="57.636%" y1="7.652%" y2="78.411%"><stop offset="0%" stop-color="#41D1FF"></stop><stop offset="100%" stop-color="#BD34FE"></stop></linearGradient><linearGradient id="IconifyId1813088fe1fbc01fb467" x1="43.376%" x2="50.316%" y1="2.242%" y2="89.03%"><stop offset="0%" stop-color="#FFEA83"></stop><stop offset="8.333%" stop-color="#FFDD35"></stop><stop offset="100%" stop-color="#FFA800"></stop></linearGradient></defs><path fill="url(#IconifyId1813088fe1fbc01fb466)" d="M255.153 37.938L134.897 252.976c-2.474 4.44-7.869 5.921-12.302 3.467L0 164.431V27.362c0-5.554 3.255-10.534 8.514-13.017l128.02-73.062c4.232-2.422 9.693-1.772 13.314 1.625l79.7 64.609c6.43 5.228 10.313 13.334 10.313 21.933z"></path><path fill="url(#IconifyId1813088fe1fbc01fb467)" d="M185.432.063L96.44 17.557l63.967 129.226 86.589-15.986c5.537-1.023 9.467-6.183 9.467-11.957V10.387c0-6.127-5.591-11.175-11.931-10.324z"></path><path fill="#fff" d="M141.532 141.25L96.305 212.782l-42.979-3.12c-5.406-.406-10.254-3.225-12.769-7.93l-5.848-10.468 6.266-8.349 5.846 10.468c.2.368.545.645 1.011.717l36.772 2.71 45.39-60.389 7.428 9.9z"></path></svg>